# xmcd
#
# Track frame offsets:
#	150
#	35986
#	59138
#	80255
#	117385
#	136237
#	155912
#	181305
#	209882
#	234881
#	255243
#	276210
#	306076
#	325267
#
# Disc length: 4716 seconds
#
# Revision: 1
# Processed by: cddbd v1.5.2PL0 Copyright (c) Steve Scherf et al.
# Submitted via: audiograbber 1.83.01
#
DISCID=d1126a0e
DTITLE=Mark Knopfler and Emmylou Harris - Live in Verona 2006
DYEAR=2006
DGENRE=Folk
TTITLE0=Speedway To Nazareth
TTITLE1=If This Is Goodby
TTITLE2=So Far Away
TTITLE3=Our Shangri-La
TTITLE4=Why Worry
TTITLE5=Marbletown
TTITLE6=Devil Baby
TTITLE7=Baloney Again
TTITLE8=Postcards from Paraguay
TTITLE9=Whoop De Doo
TTITLE10=All That Matters
TTITLE11=A Place Where We Used To Live
TTITLE12=Wild Theme
TTITLE13=If This Is Goodby
EXTD=
EXTT0=
EXTT1=
EXTT2=
EXTT3=
EXTT4=
EXTT5=
EXTT6=
EXTT7=
EXTT8=
EXTT9=
EXTT10=
EXTT11=
EXTT12=
EXTT13=
PLAYORDER=
